<svg version="1" xmlns="http://www.w3.org/2000/svg" width="522.667" height="522.667" viewBox="0 0 392.000000 392.000000"><path d="M17.3 81.2c-5 .4-9.4 1.4-11.2 2.4-2.7 1.6-3.4 2.8-4.7 8.9-.7 3-.6 109.3 0 114.5.4 2.5.9 6.5 1.2 9 1.4 11.4 5.9 23.8 11.1 30.7 9.3 12.4 24 19.3 46.8 21.9 3.3.4 23.3.8 44.5.9 45.7.3 49.2.8 56.8 8.6 4.5 4.6 6.9 12.2 7.3 23 .2 4.2.8 6.8 2.2 8.5 1.7 2.3 2.5 2.5 8.6 2.2 6.2-.3 6.7-.5 8.1-3.3 1.4-2.7 1.5-13.2 1.4-82.5-.1-43.7-.4-82-.8-85.2-2.7-26.2-12.4-43.3-29.1-51.3-10.2-4.9-18.2-6.8-34.3-8.1-9.7-.8-98.6-1-107.9-.2zM291.6 80.7c-.1.1-5.3.3-11.6.4-10.4.1-18 .8-27.3 2.4-5.2 1-16.3 5.1-21 7.9-14.1 8.2-23.4 26.3-25.4 49.7-.4 4.6-.7 44-.7 87.6-.1 91.4-1.1 83.3 9.9 83.3 8 0 9.4-1.4 10-10.3 1.2-18 6.5-26.4 19.2-30.4 3.9-1.2 12.3-1.6 45.3-1.8 22.3-.1 42.5-.6 45-.9 9-1.4 10.6-1.7 16.5-3.2 20.8-5.2 33.3-17.8 38.9-39.4 1.5-5.8 1.7-13.2 1.4-73.4l-.3-66.9-2.5-1.8c-1.4-1.1-4.5-2.2-6.9-2.5-3.8-.5-90-1.2-90.5-.7z"/></svg>