<?xml version="1.0" encoding="utf-8"?>
<!-- Generator: Adobe Illustrator 22.0.0, SVG Export Plug-In . SVG Version: 6.00 Build 0)  -->
<svg version="1.1" id="Lager_1" xmlns="http://www.w3.org/2000/svg" xmlns:xlink="http://www.w3.org/1999/xlink" x="0px" y="0px"
	 viewBox="0 0 637.1 252.6" style="enable-background:new 0 0 637.1 252.6;" xml:space="preserve">
<path d="M148.1,232.7c-0.4,0.1-0.7,0.3-1.1,0.4c-4.8,1.9-21.1,4.4-36.8,6.9c-6.7,1-13,2-16.2,2.7c-5.8,1.1-9.2,5.2-9.3,5.3l-2,2v0
	l0,0l0,0v0l-2-2c-0.1-0.1-3.5-4.2-9.3-5.3c-3.2-0.6-9.5-1.6-16.2-2.7c-15.8-2.5-32-5-36.8-6.9c-0.3-0.1-0.7-0.3-1.1-0.4
	C8,229.4,1.8,222.4,2.2,198.7C2.6,174.5,2.7,76.2,2.7,72.1l0-2.5l2.5,0l77.6,0l0,0h0h0l0,0l77.6,0l2.5,0l0,2.5
	c0,4.2,0.1,102.4,0.5,126.6C163.8,222.4,157.6,229.4,148.1,232.7z M82.8,243.2c0,0,1.8-3.5,10.4-5.1c9.8-1.9,45.7-6.8,52.2-9.3
	c4.9-1.9,13.7-2.6,13.3-30c-0.4-25-0.5-124.5-0.5-124.5l-75.4,0l-75.4,0c0,0,0,99.5-0.5,124.5c-0.5,27.3,8.4,28.1,13.3,30
	c6.5,2.5,42.4,7.4,52.2,9.3C80.9,239.8,82.8,243.2,82.8,243.2z"/>
<path d="M257.4,138.2c-3,0.4-6.8,1.3-18.1,1.3c-12.4,0-22-3.2-22-18.5V89.5c0-15.4,9.6-18.5,22-18.5c11.3,0,15,0.8,18.1,1.3
	c1.4,0.2,1.9,0.6,1.9,1.9v5.8c0,1-0.9,1.8-1.9,1.8H238c-5.5,0-7.5,1.8-7.5,7.8v9.8h25.8c1,0,1.9,0.8,1.9,1.8v6.5
	c0,1-0.9,1.8-1.9,1.8h-25.8V121c0,6,2,7.8,7.5,7.8h19.4c1,0,1.9,0.8,1.9,1.8v5.8C259.3,137.6,258.8,138.1,257.4,138.2z M293.8,139.5
	c-7.1,0-12.3-0.6-16.8-1.6c-1-0.2-1.8-0.8-1.8-1.8v-6.5c0-1,0.9-1.7,1.8-1.7c0.1,0,0.1,0,0.2,0c3.8,0.5,13.3,0.9,16.8,0.9
	c8.5,0,11-2.9,11-8.1c0-3.5-1.8-5.3-8.1-8.9l-12.5-7.1c-8.8-5-11.2-10.2-11.2-16.5c0-9.9,6.1-17.2,23.8-17.2c6.3,0,15,0.9,18.3,1.6
	c1,0.2,1.7,0.8,1.7,1.7V81c0,0.9-0.7,1.6-1.6,1.6c-0.1,0-0.1,0-0.2,0c-6.3-0.5-12.5-0.9-18.7-0.9c-7,0-10,2.3-10,6.4
	c0,3,1.6,4.8,7.8,8l11.4,6.1c10.5,5.5,13.2,11.3,13.2,18.4C318.8,129.7,312.9,139.5,293.8,139.5z M372.1,138.2
	c-2.9,0.6-11.1,1.3-16.2,1.3c-12.4,0-22-3.2-22-18.5V73.5c0-1,0.9-1.8,1.9-1.8h9.4c1,0,1.9,0.8,1.9,1.8V121c0,6,1.9,7.8,7.4,7.8
	h17.5c1,0,1.9,0.8,1.9,1.8v5.8C374,137.6,373.5,138,372.1,138.2z M406.4,139.5c-15.7,0-27.1-8.3-27.1-28.2V99.1
	c0-19.9,11.4-28.2,27.1-28.2c15.7,0,27.1,8.3,27.1,28.2v12.2C433.5,131.2,422.1,139.5,406.4,139.5z M399.8,66.2h-6.8
	c-1,0-2-0.8-2-1.8v-7.9c0-1,1-1.8,2-1.8h6.8c1,0,2,0.8,2,1.8v7.9C401.8,65.3,400.8,66.2,399.8,66.2z M420.2,99.1
	c0-11.9-4.5-17.2-13.8-17.2c-9.3,0-13.8,5.3-13.8,17.2v12.2c0,11.9,4.5,17.2,13.8,17.2c9.3,0,13.8-5.3,13.8-17.2V99.1z M418.8,66.2
	h-6.8c-1,0-2-0.8-2-1.8v-7.9c0-1,1-1.8,2-1.8h6.8c1,0,2,0.8,2,1.8v7.9C420.8,65.3,419.8,66.2,418.8,66.2z M500.1,73.7l-15.6,56.6
	c-2.3,8.4-9.1,9.2-13.2,9.2c-4.1,0-10.9-0.8-13.2-9.2l-15.6-56.6c0-0.2-0.1-0.3-0.1-0.5c0-0.9,0.8-1.5,1.7-1.5h10.1
	c0.9,0,1.6,0.7,1.8,1.5l13.8,54.3c0.3,1.1,0.6,1.4,1.5,1.4c0.9,0,1.2-0.4,1.5-1.4l13.8-54.3c0.2-0.8,0.9-1.5,1.8-1.5h10.1
	c0.9,0,1.7,0.6,1.7,1.5C500.2,73.4,500.1,73.5,500.1,73.7z M528.8,139.5c-7.1,0-12.3-0.6-16.8-1.6c-1-0.2-1.8-0.8-1.8-1.8v-6.5
	c0-1,0.9-1.7,1.8-1.7c0.1,0,0.1,0,0.2,0c3.8,0.5,13.3,0.9,16.8,0.9c8.5,0,11-2.9,11-8.1c0-3.5-1.8-5.3-8.1-8.9l-12.5-7.1
	c-8.8-5-11.2-10.2-11.2-16.5c0-9.9,6.1-17.2,23.8-17.2c6.3,0,15,0.9,18.3,1.6c1,0.2,1.7,0.8,1.7,1.7V81c0,0.9-0.7,1.6-1.6,1.6
	c-0.1,0-0.1,0-0.2,0c-6.3-0.5-12.5-0.9-18.7-0.9c-7,0-10,2.3-10,6.4c0,3,1.6,4.8,7.8,8l11.4,6.1c10.5,5.5,13.2,11.3,13.2,18.4
	C553.8,129.7,547.8,139.5,528.8,139.5z M267.5,231h-12.7c-1.1,0-1.7-0.3-2.2-1l-21.8-30.8v30c0,1-0.9,1.8-1.9,1.8h-9.4
	c-1,0-1.9-0.8-1.9-1.8v-63.5c0-1,0.9-1.7,1.9-1.7h9.4c1,0,1.9,0.7,1.9,1.7v28.8l23.3-29.8c0.5-0.6,1.1-0.7,2.2-0.7h10.8
	c1.2,0,1.8,0.5,1.8,1.1c0,0.5-0.3,1-0.7,1.4l-24.3,29.9l24.5,32.7c0.3,0.5,0.5,0.8,0.5,1.1C268.9,230.7,268.4,231,267.5,231z
	 M303.1,231.7c-15.7,0-27.1-8.3-27.1-28.2v-12.2c0-19.9,11.4-28.2,27.1-28.2c15.7,0,27.1,8.3,27.1,28.2v12.2
	C330.2,223.4,318.8,231.7,303.1,231.7z M316.9,191.4c0-11.9-4.5-17.3-13.8-17.3c-9.3,0-13.8,5.3-13.8,17.3v12.2
	c0,11.9,4.5,17.3,13.8,17.3c9.3,0,13.8-5.3,13.8-17.3V191.4z M406.9,231h-9.6c-0.9,0-1.5-0.9-1.5-1.8v-42c0-0.6-0.1-0.9-0.3-0.9
	c-0.1,0-0.3,0.3-0.5,0.5l-9.1,17.3c-0.6,1-1.8,1.5-3,1.5h-9.6c-1.2,0-2.5-0.5-3-1.5l-9.2-17.3c-0.2-0.3-0.4-0.5-0.5-0.5
	c-0.2,0-0.3,0.3-0.3,0.9v42c0,0.9-0.7,1.8-1.5,1.8h-9.6c-0.9,0-1.6-0.5-1.6-1.4v-62.2c0-2,1.7-3.6,3.8-3.6h7.8
	c1.5,0,2.8,0.9,3.5,2.2l14.4,27.7c0.5,0.8,0.7,1.3,1,1.3c0.4,0,0.6-0.5,1-1.3l14.4-27.7c0.7-1.3,2-2.2,3.5-2.2h7.8
	c2.1,0,3.8,1.6,3.8,3.6v62.2C408.5,230.6,407.7,231,406.9,231z M489.2,231h-9.6c-0.9,0-1.5-0.9-1.5-1.8v-42c0-0.6-0.1-0.9-0.3-0.9
	c-0.1,0-0.3,0.3-0.5,0.5l-9.1,17.3c-0.6,1-1.8,1.5-3,1.5h-9.6c-1.2,0-2.5-0.5-3-1.5l-9.2-17.3c-0.2-0.3-0.4-0.5-0.5-0.5
	c-0.2,0-0.3,0.3-0.3,0.9v42c0,0.9-0.7,1.8-1.5,1.8h-9.6c-0.9,0-1.6-0.5-1.6-1.4v-62.2c0-2,1.7-3.6,3.8-3.6h7.8
	c1.5,0,2.9,0.9,3.5,2.2l14.4,27.7c0.5,0.8,0.7,1.3,1,1.3c0.4,0,0.6-0.5,1-1.3l14.4-27.7c0.7-1.3,2-2.2,3.5-2.2h7.8
	c2.1,0,3.8,1.6,3.8,3.6v62.2C490.8,230.6,490,231,489.2,231z M535.8,231.7c-15.3,0-26.1-6.3-26.1-25.6v-40.6c0-1,0.9-1.7,1.9-1.7
	h9.4c1,0,1.9,0.7,1.9,1.7v40.6c0,10.3,2.7,15.2,12.9,15.2c10.3,0,12.9-4.9,12.9-15.2v-40.6c0-1,0.9-1.7,1.9-1.7h9.4
	c1,0,1.9,0.7,1.9,1.7v40.6C562,225.4,551.1,231.7,535.8,231.7z M630.6,231H621c-2.3,0-4.3,0-5.8-3.3l-21.1-44
	c-0.3-0.5-0.6-0.7-0.9-0.7c-0.3,0-0.5,0.2-0.5,0.7v45.4c0,1-0.8,1.8-1.8,1.8h-8.1c-1,0-1.9-0.8-1.9-1.8v-61.7c0-2,1.7-3.6,3.8-3.6
	H595c2,0,3,0.5,4.2,2.9l22.2,46.5c0.2,0.5,0.5,0.7,0.8,0.7c0.2,0,0.5-0.3,0.5-0.8v-47.6c0-1,0.8-1.7,1.8-1.7h8.2
	c1,0,1.8,0.7,1.8,1.7v61.8C634.4,229.4,632.7,231,630.6,231z"/>
<path d="M132.2,64.8c-1.6-0.4-5.4-1.3-11.2-2.2l1.4-6.3c6,1.2,9.8,2.4,11.3,2.8L132.2,64.8z M54.7,36.3c7.5-1,16.2-1.6,25.8-1.6
	c0.7,0,1.3,0,2,0l-3.2-3.7c-9.9,0.1-20.2,1.3-22.5,1.5L54.7,36.3z M115.7,32c3.4,0.5,12.1,1.9,20,4.3l-1.9-4
	c-2.6-0.9-8.3-2-14.8-3.1L115.7,32z M108.7,45.6c-7.1-0.8-15.4-1.4-24.7-1.4c-0.2,0-0.4,0-0.7,0l0.1,6.7c9.1,0.1,17.2,0.7,24.1,1.5
	L108.7,45.6z M96.3,52.9l-0.6,6.9c9.6,0.5,17.7,1.5,23.9,2.5l1.4-6.3c0,0-0.1,0-0.1,0C114.6,54.8,106.3,53.6,96.3,52.9z M81.4,52.4
	c-4.1,0-8.1,0.1-11.8,0.4l0.5,6.9c3.6-0.2,7.3-0.3,11.4-0.3c0.4,0,0.7,0,1.1,0c4,0,7.9,0.1,11.6,0.3l0.6-6.9
	c-3.6-0.2-7.5-0.4-11.6-0.4C82.6,52.4,82,52.4,81.4,52.4z M84,42.7c4.2,0,8.2,0.1,12,0.3l0.4-6.4c-4-0.2-8.3-0.4-13-0.4
	c-1,0-2,0-2.9,0c-3.9,0-7.7,0.1-11.3,0.3l0.5,6.7c4.2-0.2,8.6-0.4,13.3-0.4C83.3,42.7,83.7,42.7,84,42.7z M123.3,46.3l1.3-6.4
	c-6.4-1.2-15.1-2.5-26.7-3.2l-0.4,6.4C108.1,43.8,116.8,45.1,123.3,46.3z M107.7,32.3c-11-1.1-18.8-1.2-21.1-1.2c-0.2,0-0.4,0-0.5,0
	l-3,3.6c0.1,0,0.3,0,0.4,0c10.4,0.2,19.2,0.7,26.4,1.5L107.7,32.3z M41.3,40c-0.4,0.1-0.8,0.2-1.2,0.2l1.2,6.4
	c6.7-1.3,15.7-2.7,26.8-3.4l-0.5-6.7C57.2,37.2,48.2,38.6,41.3,40z M56.6,45.8l0.7,6.6c7-0.9,15.1-1.5,24.1-1.5c0.2,0,0.3,0,0.5,0
	l-0.1-6.7C72.3,44.3,63.8,45,56.6,45.8z M44.9,55.9c-0.6,0.1-1.1,0.2-1.6,0.3l1.2,6.4c6-1.1,14.2-2.3,24.2-2.9l-0.5-6.9
	C58.9,53.5,51,54.7,44.9,55.9z M135.9,50.9c-1.4-0.4-6-1.9-13.6-3.3c-3.5-0.7-7.5-1.3-12.1-1.9l-1.2,6.8c13.8,1.7,22.6,4.3,25.1,5
	L135.9,50.9z M137.9,43.4c-0.4-0.2-1.2-0.5-2.5-0.9c-2-0.6-5.1-1.5-9.3-2.4l-1.3,6.4c6.1,1.3,10.1,2.4,11.5,2.9L137.9,43.4z
	 M138.4,41.5l-0.2,0.1l-1.6-3.4c-9.6-3-21.1-4.6-22.5-4.8l-3.5,2.9c16.9,1.9,25.3,4.8,27.6,5.7L138.4,41.5z M136,17.6
	c0.2,1,0.6,1.6,0.9,1.9c0.5-0.2,1.4-0.4,2.8-0.4c1.4,0,3.3,0.2,5.7,1c4.4,1.3,6.3,2.9,6.8,3.4c0.1,0,0.2-0.1,0.3-0.1
	c0.6-0.2,1.3-0.6,1.8-1.3c0,0,0.3-0.6,0.6-1.2c0.3-0.7,0.6-1.6,0.9-2.4c0.4-1.2,0.8-2.4,1-2.9c-0.4-0.6-1.7-1.6-2.6-2.1l-1.1,3.7
	l-0.9-0.5c-0.9-0.5-1.9-1-2.5-1.2l-0.8-0.2l0.9-3.9c-1.2-0.4-2.9-0.8-4.2-0.9l-0.8,3.8l-0.8-0.1c-0.9-0.2-1.7-0.2-2.3-0.2
	c-0.4,0-0.6,0-0.6,0l-1.1,0.1l0.6-3.7c-1,0.1-1.9,0.2-2.5,0.4c-0.4,0.1-0.6,0.2-0.8,0.2c-0.1,0.6-0.3,1.7-0.5,2.8
	C136.3,15.4,136,17.3,136,17.6z M121.2,23.2l-1.1,4.7c6,1,11.2,2,14,2.9l0.9-4.9c0,0-0.1,0-0.1,0c-0.3-0.1-0.7-0.2-1.3-0.3
	c-1.1-0.3-2.8-0.6-5-1.1C125.7,23.8,122.5,23.4,121.2,23.2z M106.3,14.1c1.3-0.5,3-0.7,4.8-0.7c1.1,0,2.2,0.1,3.2,0.2
	c4.2,0.6,6.9,2.2,7.7,2.8c0.2-0.1,0.4-0.1,0.6-0.3c0.6-0.3,1.1-0.8,1.4-1.5l0-0.1l0,0c0,0,0-0.1,0.1-0.2c0.1-0.2,0.1-0.4,0.2-0.7
	c0.2-0.6,0.3-1.3,0.5-2.1c0.2-1,0.5-2,0.6-2.6c-0.6-0.8-1.7-1.3-2.6-1.7l-0.8,4l-1-0.6c-0.8-0.5-2.7-1-2.7-1l-0.7-0.2l0.6-3.8
	c-1.3-0.4-3-0.6-4.7-0.7l-0.3,3.7l-0.8,0c0,0-0.1,0-0.2,0c-0.4,0-1.4,0-2.7,0.2l-1,0.1l0.2-3.9c-0.9,0.1-1.8,0.4-2.5,0.6
	c-0.4,0.1-0.7,0.3-1,0.4c0,1.3-0.2,4.7-0.2,5.6c0,0,0,0,0,0.1C104.9,12,104.9,13.3,106.3,14.1z M104.8,27.3
	c-8.3-1-13.7-1.1-14.6-1.1h-0.1l0-0.1l-2.8,3.4c2.9,0,9.9,0.2,19.4,1.1L104.8,27.3z M90.8,20.1l-0.3,4.7c1.2,0,6.3,0.1,14.1,1
	l0.4-4.6c-1.1-0.1-3.9-0.5-6.9-0.7C95.2,20.2,92,20.1,90.8,20.1z M74.9,13.2c2.8-0.9,5.4-1.2,7.7-1.2c4.3,0,7.4,1.1,8,1.3
	c0,0,0,0,0.1,0c0.2-0.1,0.4-0.2,0.6-0.3c0.5-0.3,0.9-0.7,1-1.5c0.2-1,0.4-4.3,0.5-5.5c-0.9-0.6-2-1-3-1.2l-0.4,3.8l-1-0.3
	c-1.2-0.4-1.8-0.5-3-0.6l-0.8-0.1l0.2-3.7c-0.7-0.1-1.7-0.1-2.8-0.1c-0.6,0-1.2,0-1.8,0.1l0,3.8l-0.8,0C77.9,7.6,76.6,8,76.6,8
	l-1,0.3l-0.3-3.7c-1.5,0.3-2.5,0.7-3,0.9c0.1,1.4,0.3,5,0.4,5.8c0,0.4,0.6,1,1.2,1.4C74.3,12.9,74.7,13.1,74.9,13.2z M60,20.5
	l0.4,4.9c2.5-0.2,8.7-0.7,13.9-0.8l-0.1-4.7c-1.2,0-4.1,0.1-6.9,0.2C64.8,20.1,64.2,20.2,60,20.5z M59.8,26.9l-2.2,3.9
	c3.4-0.4,11.9-1.3,20.3-1.4L75,26C69.3,26.1,61.7,26.7,59.8,26.9z M44,15.3c1.4-0.8,4.6-2.4,9.3-2.4c1.6,0,3.5,0.2,5.4,0.7
	c0.2-0.1,0.5-0.3,0.8-0.5c0.5-0.3,0.9-0.8,0.9-0.9l0,0c0,0,0-0.1,0-0.1c0-0.1,0-0.2,0-0.4c0-1.4-0.2-4.4-0.3-5.7
	c-1-0.3-2-0.5-3.3-0.6L57,8.6l-1-0.1c-0.9-0.1-1.6-0.1-2.1-0.1c-0.4,0-0.6,0-0.6,0l-0.8,0.1L52,5.1c-1.2,0.1-2.7,0.3-3.9,0.4L48.7,9
	l-0.8,0.2c-1,0.2-1.7,0.4-2.1,0.6c-0.4,0.1-0.6,0.2-0.6,0.2l-1,0.5l-0.8-3.6C42.1,7.3,41,8,40.5,8.4c0.2,1,0.6,3.4,1,5
	c0.1,0.7,0.3,1.2,0.4,1.2c0.1,0.2,0.5,0.4,1,0.6c0.5,0.1,0.9,0.1,0.9,0.1L44,15.3z M29.9,26l0.9,4.6c1.7-0.4,7-1.8,14.3-3.2L44.3,23
	c-0.9,0.2-2.7,0.5-4.8,0.9C35.6,24.6,32.3,25.4,29.9,26z M29.2,36.1c2.8-0.7,11.4-2.8,20.1-4.2l-3.6-3.2c-8.3,1.7-14.2,3.2-15,3.4
	L29.2,36.1z M12.6,22.6c1.2-0.9,5.7-4,12.4-4c0.8,0,1.6,0,2.5,0.1c0.7-0.7,0.9-1.5,0.9-1.7v0l-1-6.4c-0.8-0.2-1.9-0.3-3-0.3
	c-0.1,0-0.1,0-0.2,0l0.4,2.9l-1,0c-1,0-2.7,0.3-3,0.4l-0.8,0.2l-0.7-3.1c-1.1,0.2-2.4,0.6-3.4,0.9l0.8,3l-0.7,0.3
	c-0.9,0.3-1.6,0.6-2.7,1.2l-0.9,0.5l-0.9-3.1c-0.8,0.5-1.5,0.9-2,1.2c-0.2,0.2-0.4,0.3-0.6,0.4l1,3.8c0,0,0.2,0.7,0.4,1.4
	c0.2,0.7,0.6,1.6,0.8,1.8l0,0c0.2,0.2,1.1,0.4,1.6,0.4C12.5,22.6,12.5,22.6,12.6,22.6z M26.9,41.9c3.3-1,13.2-3.8,27.3-5.6l-3.4-3.1
	c-11,1.6-22.2,4.6-22.2,4.6v0l0-0.1L26.9,41.9z M28.7,49.7c1.4-0.4,5.2-1.6,11.2-2.8l-1.2-6.4c-5.9,1.3-10,2.4-11.6,3L28.7,49.7z
	 M30.9,57.8c2.3-0.7,11.3-3.4,24.9-5.2L55.1,46c-10.7,1.3-18.5,3.1-22.8,4.3c-1.6,0.4-2.6,0.7-3.2,0.9L30.9,57.8z M33,65.4
	c1.2-0.4,4.5-1.4,9.9-2.4l-1.1-6.4c-5.6,1.2-9.2,2.3-10.4,2.7L33,65.4z M29.5,31.4L25.7,41l-9.1-6.3l-2.9-11.1
	c0.1-0.1,0.2-0.2,0.3-0.2c1.6-1.1,5.5-3.4,11-3.3c0.7,0,1.4,0,2.1,0.1l1.2,5.2L29.5,31.4z M22.5,30.6l0.9-0.2l-1.2-4.9
	c0-0.1,0-0.2-0.1-0.4c-0.1-0.3-0.6-0.6-1-0.6c-0.1,0-0.2,0-0.4,0c-0.5,0.1-1,0.7-1,1.1c0,0.1,0,0.2,0,0.3l1.2,5l0.9-0.2l0,0l0.3-0.1
	L22.5,30.6L22.5,30.6z M120.9,17.5l-0.7,3.8l-1.5,6.3l-8,6.7l-4.6-8.2l0.8-10.6c1-0.4,2.7-0.6,4.3-0.6c1,0,2,0.1,2.9,0.2
	c2.4,0.4,4.3,1,5.5,1.6C120.1,17.1,120.6,17.3,120.9,17.5z M114.7,19.7c0-0.2,0-0.5-0.2-0.7c-0.2-0.3-0.5-0.4-0.8-0.4
	c-0.1,0-0.1,0-0.2,0c-0.4,0-0.8,0.2-1,0.5c-0.1,0.2-0.2,0.4-0.2,0.5l-0.7,5l0.9,0.1v0l0.3,0l0.5,0.1l0,0L114,25l0.7-5
	C114.6,19.9,114.7,19.8,114.7,19.7z M150.8,24.3l-3.2,10.2l-8.3,5.9l-4-8.3l2-11.1c0.3-0.1,1-0.4,2.3-0.4c1.2,0,2.9,0.2,5.3,0.9
	c2.4,0.7,4,1.5,4.9,2.1C150.3,23.9,150.6,24.1,150.8,24.3z M143.5,24.7c-0.1,0-0.2,0-0.3,0c-0.4,0-0.8,0.2-1,0.5
	c-0.1,0.2-0.2,0.3-0.2,0.4l-1,5l0.9,0.2l0,0l0.3,0.1l0.4,0.1l0,0l0.9,0.2l1-4.9c0-0.1,0-0.2,0-0.3C144.6,25.5,144.1,24.8,143.5,24.7
	z M89.6,14.6l-0.8,10.8l-6.1,7.3l-7-8.1l-0.1-10c2.5-0.8,4.9-1,6.9-1c2.3,0,4.2,0.3,5.5,0.7C88.7,14.3,89.3,14.5,89.6,14.6
	C89.6,14.6,89.6,14.6,89.6,14.6z M83.8,22.6l0-5c0,0,0-0.1,0-0.1c0-0.2,0-0.4-0.2-0.7c-0.2-0.3-0.6-0.4-1-0.4c-0.3,0-0.7,0.1-1,0.4
	c-0.2,0.3-0.3,0.6-0.3,0.7c0,0,0,0,0,0.1l0,5.1l0.9,0v0l0.2,0l0.5,0v0l0,0L83.8,22.6z M58.9,25.5l-4.8,8.8l-7.4-6.6l-1.8-9.3l0,0
	l-0.3-1.6c0.1,0,0.1-0.1,0.2-0.1c1.2-0.7,4.2-2.2,8.6-2.2c1.4,0,3,0.2,4.7,0.6L58.9,25.5z M52.7,24.5l0.9-0.1l-0.7-5
	c0-0.1,0-0.3-0.2-0.5c-0.1-0.3-0.6-0.6-1-0.5c-0.1,0-0.1,0-0.2,0c-0.3,0-0.6,0.2-0.8,0.4c-0.2,0.3-0.3,0.5-0.3,0.7
	c0,0.1,0,0.2,0,0.2l0.7,5l0.9-0.1l0,0l0.3,0L52.7,24.5L52.7,24.5L52.7,24.5z M132.5,71.7l0.2-1.2l0.3-2.3l-0.9-1.7
	c-1.4-0.3-6-1.5-13.3-2.6c-8.8-1.4-21.3-2.8-36.3-2.8c-0.4,0-0.7,0-1.1,0c-23,0-38.8,3.4-45.2,5.1c-1.4,0.4-2.4,0.7-2.9,0.8l-0.6,2
	l0.1,2.7l0.2,0.4l0.1,0.4l0.1,0l0.4,0.8c0.6-0.2,1.5-0.5,2.7-0.8l95.2,0.6c0.3,0.1,0.5,0.2,0.7,0.2l0-0.2l0.2,0
	C132.6,72.9,133,72.2,132.5,71.7z"/>
<path d="M107.3,109c0,1.6-0.3,3.3-0.9,5.2c-2.1,6.3-6.5,9.5-10.7,9.5c-3.1,0-6-1.8-7.4-5.2c-1.2-2.7-1.7-4.1-2.1-5.1
	c0,0.6,0.1,1.4,0.1,2.3c0,3.1-0.3,7.7-2,12.7c-2.2,6.8-4.2,9.1-5.7,9.2c-0.8,0-1.2-0.8-1.2-1.6c0-0.5,0.1-1.1,0.4-1.7
	c2.5-5.4,3.7-10,3.7-16.7c0-0.4,0-0.7,0-1.1c0-1.6-0.1-3.1-0.1-4c-1,1.2-1.5,2.4-3.1,6c-1.5,3.4-4.3,5.2-7.4,5.2
	c-4.1,0-8.5-3.2-10.6-9.5c-0.6-1.9-0.9-3.7-0.9-5.2c0-6.1,4.2-9.8,8.6-9.8c1.6,0,3.3,0.5,4.8,1.5c2.7,1.9,4.6,2.8,5.7,3.3
	c1.1,0.5,1.5,0.5,1.5,0.5c0,0,0,0,0.1,0c-0.1-0.1-0.2-0.5-0.4-0.7c-0.1-0.3-0.8-1-0.8-1c0,0-0.1-0.1-0.7-0.6
	c-0.6-0.5-1.7-1.5-3.8-3.1c-2.1-1.7-3.3-4.2-3.3-6.8c0-4.8,4-9.6,12.2-9.7c0,0,0,0,0,0c7.7,0,11.8,4.3,11.9,9.1
	c0,2.4-1.1,4.8-3.2,6.8c-3.7,3.4-4.3,4-4.8,5.1c0,0-0.4,0.5-0.4,1.1c0,0,0.1,0,0.2,0c0.1,0,0.2,0,0.4-0.1l0,0h0.1c0,0,0,0,0.2-0.1
	c0.2-0.1,0.5-0.2,0.9-0.4c0.9-0.5,2.5-1.3,5.2-3.1c1.5-1,3.2-1.5,4.9-1.5C103.1,99.5,107.3,103,107.3,109z M31.7,162.3
	c0.4-0.2,0.7-0.3,1.1-0.3c-1.1-1.4-2.1-3.6-2.3-4.9c-0.2-1.3,0.1-3.7,1.9-4.3c-1.5-0.9-3.9-2.5-7.8-6c-5.9-5.3-4.5-5.1-4.9-4.4
	c-0.9,1.5-3.5,6.6,2.5,12.6C26.3,159.2,29.8,161.3,31.7,162.3z M30.8,163.1c-0.6,0.9-1.3,2.5,0.4,4.6c0.7,0.8,1.3,1.5,2,2.1
	c-1.4,0-2.1,1.4-2.1,3.1c-2.2-1-4.5-2.1-6.2-3.2c-9-5.8-5.6-13.5-5.5-14c0.3-1,0.9-0.1,0.9-0.1c3.7,3.2,6.7,5.3,9,6.7
	C29.8,162.6,30.3,162.9,30.8,163.1z M18.4,172.2c-0.4-3.4,1.5-4.7,1.5-4.7c3.6,3.6,7.7,5.8,11.4,7.2c0.2,0.7,0.5,1.4,0.9,1.9
	c1.1,1.3,2.3,2,3.3,2.4c-1.3,0.5-2,1.6-0.9,3.7c0.7,1.4,2.5,2.6,4.3,3.4c-2.9-0.2-5.3-0.7-5.3-0.7C21,182.6,18.8,176.2,18.4,172.2z
	 M23.3,188.3c-2-2.7-2.1-7.9-0.9-6.5c1.2,1.4,5.3,4.8,11.5,5.6c3.8,0.5,6.4,0.2,7.5-0.2c0.7,0.2,1.4,0.4,2,0.5
	c-1,0.7-1.8,1.9-0.3,3.7c0.8,0.9,2.5,1.8,4.1,2.5c-2.5,0.8-5.5,1.2-5.5,1.2C29.6,195.3,25.8,191.7,23.3,188.3z M49.4,194.4
	c-0.2,1.5-0.3,3.1-0.3,4.7c0,1.2,0.1,2.4,0.2,3.6c-6.4,1.5-9.9,0.2-12.2-0.9c-4.3-2-5.5-5.8-4.2-5.5c4.7,0.9,8.5,0.4,11.2-0.3
	c2.5-0.7,3.7-1.3,4.3-1.8C48.7,194.3,49.1,194.4,49.4,194.4z M129.1,201.8c-2.6,1.2-6.6,2.8-14.7,0.2c-3.3-1.1-5.1-1.7-5.9-2.2
	c0.3-0.4,0.3-0.9,0.1-1.2c1.9,0,5.9-0.6,7.4-3.6c0.2-0.3,0.2-0.6,0.2-0.8c0.4,0,1-0.1,1.5-0.2c0.4,0.5,1.6,1.2,4.4,1.9
	c2.7,0.7,6.5,1.2,11.2,0.3C134.6,196.1,133.4,199.8,129.1,201.8z M142.9,188.3c-2.5,3.4-6.3,7-18.3,6.6c0,0-3.1-0.3-5.6-1.2
	c1.7-0.6,3.4-1.5,4.2-2.4c1.5-1.7,0.8-2.9-0.2-3.7c0.6-0.1,1.2-0.3,1.9-0.5c1.1,0.4,3.7,0.7,7.5,0.2c6.1-0.8,10.3-4.2,11.5-5.6
	C144.9,180.4,144.8,185.6,142.9,188.3z M147.8,172.2c-0.4,3.9-2.6,10.3-15.3,13.2c0,0-2.4,0.5-5.3,0.7c1.9-0.9,3.6-2.1,4.3-3.4
	c1.1-2.1,0.5-3.2-0.8-3.7c1-0.4,2.1-1.1,3.2-2.4c0.4-0.5,0.7-1.2,0.9-1.9c3.7-1.4,7.8-3.6,11.4-7.2
	C146.3,167.6,148.2,168.8,147.8,172.2z M135,167.7c1.7-2.1,1-3.7,0.4-4.6c0.4-0.2,0.9-0.5,1.5-0.9c2.3-1.4,5.3-3.5,9-6.7
	c0,0,0.7-0.9,0.9,0.1c0.1,0.5,3.5,8.2-5.5,14c-1.8,1.1-4,2.2-6.2,3.2c0-1.7-0.7-3.1-2.1-3.1C133.7,169.2,134.3,168.5,135,167.7z
	 M146.5,142.4c0.9,1.5,3.5,6.6-2.5,12.6c-4.2,4.2-7.7,6.3-9.6,7.3c-0.3-0.2-0.7-0.3-1.1-0.3c1.1-1.4,2.1-3.6,2.3-4.9
	c0.2-1.3-0.1-3.7-1.9-4.3c1.5-0.9,3.9-2.5,7.8-6C147.6,141.6,146.1,141.7,146.5,142.4z M143,129.8c1.9-2.3,4.8-6.2,6.3-9.2
	c0.7-1.4,2.2-1.1,2.8,4.7c0.4,4.3-1.9,11.2-9.1,18c-5.6,5.2-9.2,8.1-10.9,9.4c-0.3,0-0.5,0.1-0.8,0.2c0.9-1.9,1-5-2.3-6.4
	c-0.6-0.3-1.2-0.4-1.9-0.4C130.2,143.2,137,136.8,143,129.8z M117.2,204.3c0.4,1.3-4.8,2.9-8.6,2.7c-2.6-0.2-5-0.4-7-1.5
	c0,0,0,0,0,0c-0.9-0.5-1.7-1.2-2.4-2.1c-1.5-1.9-1,1.8,3.2,3.9c-0.2,0.2-0.6,0.4-1.2,0.6c-2.6,0.8-7.5,0.3-10.8-2.8
	c-5.4-5.1-3.8-2.5-3-1.4c-1.1-0.4-2.8-0.8-3.8-0.9c-3.4-0.3-7.9-4.5-3-8.1c3.1-2.3,7-0.1,7-0.1s7.2,1.2,10.2-1.9
	c3.1-3.1,4.7-6.5,12-8.7c7.3-2.2,8.1-4.3,7-6.9c-1.2-2.6-5.9-5.9-1.8-10.8c4.7-5.6,3.5-9.5-3.7-7.2c-7.3,2.3-15.7,0.5-14.7-8.1
	c1.1-8.7,7.6-14.8,9.7-18c1.3-2,3.6-5.1,0.6-6c-0.6-0.2,0.7-1.3,2.3-0.5c0.9,0.4,1.4,1.3,1.7,1.9c0.6,2.2,0,5.2-0.6,6.6
	c-0.7,1.5,2.2-1.7,2.1-6c0-0.1,0-0.2,0-0.2c2.7-2.6,12.3-12.4,18.9-28.1c0,0,1.6-4,2.6-10.7c0.3-2.3,3.4,0.8,4.2,3.4
	c0.5,1.5,4.5,10.1-7,27.4c-4.1,6.2-9.3,13.1-11.9,16.6c-0.2-0.5-0.7-1-1.6-1.3c-2-0.6-7.3-0.6-10.8,4.7c-2.9,4.3-2.9,6.5-2.9,6.5
	s2.9-9.5,11.6-9.8c3.4-0.1,0.8,5.1,0.8,5.1s1.9-1.7,2.7-3.3c2.7-3,13.5-14.6,17.6-20.7c3.2-4.6,6.6-9.9,7.6-15.2
	c0.3-1.4,3.1,1.3,4,3c0.2,0.4,4.8,6.6-5.8,20.7c-7.6,10.2-13.3,16.5-15.9,19.2c0.5-1.3,1.6-4.9-4.4-5c-5.2-0.1-9.9,5.7-9.9,5.7
	l-1.7,2.2c0,0,6-5.7,10.6-6.2c4.9-0.5,4.6,2.2,4.1,3.7c-2.1,0.5-3.8,1.6-3.8,1.6s-1.3,0.6-3.1,2.1c-1.4,1.2,1.8-1.1,6.6-2.1
	c6.9-1.4,5.6,4.4,4.1,6.1c-1,0.6-1.7,1.2-1.7,1.2l-1,0.7l1.2-0.4c0,0,7.1-3.9,6.6,1.1c-0.4,3.2-2.6,5.4-4,6.6
	c-0.5,0.3-0.8,0.6-0.9,0.6c-0.3,0.2-0.5,0.3-0.5,0.3c0.6-0.3,1.1-0.5,1.6-0.6c1.5-0.4,4.1-0.8,3.9,1.3c-0.5,5-8,7.8-8,7.8
	s1.9,0.2,4.4-1c1.6-0.2,3.3,0.1,2.7,2.6c-0.6,2.6-3.7,4-5.8,4.6l-0.5,0.1l-1.1,0.3c-0.1,0-0.2,0-0.2,0l0,0l-0.2,0.1
	c0,0,7-0.3,4.4,3.1c-1.9,2.4-6,3.7-8.7,4.2c0,0,0,0,0,0l-3.4,0.5c0,0,6.1,0.4,3.3,3.6c-2.9,3.4-9.6,2-9.6,2s0.3,0.6,2.1,1
	c0.3,0.4,1,1.9-1.9,2.9c-3.9,1.3-5.8,0-5.8,0c0.1,0.1,0.2,0.1,0.3,0.2l-0.1,0c0,0,2.7,5.8-8.2,2.1c-1-0.3-1,0-1,0s1.3,1,2.9,1.9
	c3,1.8,7.1,0.6,7.8,0.1c0.5-0.3,0.8-0.7,1-1c0.3,0.3,0.7,0.6,1.2,1.1C112.6,203.6,116.8,202.9,117.2,204.3z M61.9,192.6l11.7,6.5
	l-11.6,6.7c-0.5-1.4-0.7-2.8-0.9-4.3c1.4,0,2.9-0.2,4.2-0.9c1.6-0.9,2.9-1.9,2.9-1.9s0-0.3-1,0c-3,1-5,1.3-6.3,1.2
	c0-0.2,0-0.5,0-0.7C60.9,196.7,61.2,194.6,61.9,192.6z M54.9,158.9c-7.3-2.3-8.4,1.6-3.7,7.2c4.2,4.9-0.6,8.3-1.8,10.8
	c-1,2.2-0.5,4.1,4,5.9c-0.5,0.8-0.9,1.6-1.3,2.5c-0.3-0.1-0.6-0.1-0.9-0.1c-7.1-0.9-9.7-6.3-7.5-8.3c1.7-1.6,2.3-2.4,2.3-2.4
	s-3.2-1.3-3.5-3.1c-0.5-3.4,3.9-3.6,3.9-3.6s-4.7-1.2-4.5-3.9c0.3-3.7,5.7-0.5,2.4-4.8c-3-4,2.1-4.6,2.3-4.6
	c3.9-0.1,5.3,1.5,5.3,1.5s-1.2-3.7-7-2.6c-3.3,0.6-4.4,3.9-1.4,7.2c0,0-4.4,0.1-3.2,4.5c0,0,0.5,1.9,2.4,2.7
	c1.1,0.5-3.5,1.5-1.9,4.8c0.6,1.4,2.4,2.3,2.4,2.3s-4.7,2.8-1.1,6.8c3.4,3.8,6.3,4.1,9.4,4.7c-0.9,2.1-1.5,4.2-2,6.5
	c-1.7-0.2-3.5-0.8-4.6-2.2c-2.8-3.2,3.6-3.5,3.6-3.5l-3.3-0.5l-0.1,0c-2.7-0.5-6.7-1.6-8.7-4.3c-2.6-3.4,4.4-3.2,4.4-3.2l-0.7-0.2
	l0.2,0c0,0-6.5-1.2-7.4-4.6c-0.8-2.9,0.7-3.4,2.4-3.2c2.6,1.4,4.7,1.2,4.7,1.2s-7.9-3-8.2-7.7c-0.1-2.1,2.7-1.7,4.2-1.3
	c0.5,0.2,0.9,0.3,1.5,0.6c0,0-0.2-0.1-0.6-0.3c0,0,0.1,0,0.1,0s-0.5-0.5-1.3-0.9c-1.5-1.2-3.5-3.3-3.6-6c-0.2-5.7,7.5-0.7,7.5-0.7
	L39,155c0,0-0.8-0.6-1.9-1.2c-1.3-1.8-1.9-7.5,4.6-6.1c4.7,1,7.8,3.6,6.4,2.3c-1.7-1.5-3.1-2.1-3.1-2.1s-1.7-1.2-3.8-1.6
	c-0.5-1.5-0.8-4.3,4.1-3.7c4.7,0.5,10.6,6.2,10.6,6.2l-1.7-2.2c0,0-4.7-5.8-9.9-5.7c-5.9,0.1-4.9,3.7-4.4,5
	c-2.6-2.8-8.3-9-15.9-19.2c-10.6-14.2-6-20.4-5.8-20.7c0.9-1.7,3.8-4.4,4-3c1,5.3,4.4,10.6,7.6,15.2c4.2,6.1,14.9,17.8,17.6,20.7
	c0.8,1.7,2.7,3.3,2.7,3.3s-2.5-5.2,0.8-5.2c8.7,0,11.5,10,11.5,10s0-2.2-2.9-6.5c-3.6-5.3-8.8-5.3-10.8-4.7c-1,0.3-1.5,0.8-1.6,1.3
	c-2.7-3.5-7.8-10.5-11.9-16.6c-11.6-17.3-7.5-25.9-7-27.4c0.8-2.6,3.9-5.7,4.2-3.4c0.9,6.8,2.6,10.7,2.6,10.7
	c6.6,15.7,16.1,25.5,18.8,28.1c0,0.1,0,0.2,0,0.3c-0.1,4.3,2.8,7.5,2.2,6c-0.6-1.3-1.4-4.1-0.7-6.2c0,0,0,0,0,0
	c0.1-0.3,0.2-0.6,0.4-0.8c0.3-0.5,0.7-1.1,1.4-1.4c1.6-0.8,2.9,0.3,2.3,0.5c-3.1,1-0.7,4.1,0.6,6c2.1,3.2,8.7,9.3,9.7,18
	C70.6,159.4,62.2,161.2,54.9,158.9z M14.1,125.3c0.6-5.9,2.2-6.1,2.8-4.7c1.4,3,4.4,7,6.3,9.2c6.1,7.2,13,13.6,15.9,16.3
	c-0.6,0-1.3,0.2-1.9,0.4c-3.2,1.4-3.2,4.5-2.3,6.4c-0.3-0.1-0.5-0.1-0.8-0.2c-1.7-1.3-5.3-4.1-10.9-9.3
	C16,136.5,13.6,129.6,14.1,125.3z M123.9,181.7c3.6-4-1.1-6.8-1.1-6.8s1.8-0.9,2.4-2.3c1.5-3.3-3-4.4-1.9-4.8
	c1.9-0.8,2.4-2.7,2.4-2.7c1.2-4.4-3.2-4.5-3.2-4.5c3-3.3,1.9-6.6-1.4-7.2c-5.8-1.1-7,2.6-7,2.6s1.4-1.7,5.3-1.5
	c0.3,0,5.3,0.6,2.3,4.6c-3.3,4.4,2.2,1.1,2.4,4.8c0.2,2.7-4.5,3.9-4.5,3.9s4.5,0.2,3.9,3.6c-0.3,1.8-3.5,3.1-3.5,3.1s0.8,1,2.4,2.7
	c1.7,1.7-0.5,7.1-7.6,8c-6,0.8-7.9,3.7-9.3,5.1c-0.3,0.3-0.7,1.3-0.7,1.3C112.9,183.4,117.5,188.9,123.9,181.7z M51.1,199.1
	c0,17,13.8,30.7,30.8,30.8c13.8,0,25.5-9.1,29.4-21.6c-1.1,0.2-2.1,0.2-3.1,0.2C104.3,219.3,94,227,81.9,227
	c-15.4,0-27.9-12.5-27.9-27.9c0-15.4,12.5-28,27.9-28c9.8,0,18.4,5,23.4,12.7c0.8-0.4,1.6-0.8,2.6-1.2c-5.5-8.6-15-14.3-26-14.3
	C64.9,168.3,51.1,182.1,51.1,199.1z M104.6,208c-0.5,0.3-1.3,0.7-2.7,1.2c-2.2,0.8-4.6,0.4-6.9-0.3l4.6,2.5c0.3,0.1,0.4,0.4,0.5,0.7
	c0.1,0.3,0,0.6-0.2,0.8c-3.6,4.7-9,8-15.2,8.8c0,0-0.1,0-0.1,0c-0.2,0-0.5-0.1-0.7-0.2c-0.2-0.2-0.3-0.5-0.3-0.8l0-16
	c-4-0.5-6.5-3-7-5.4c-0.1,0.3-0.2,0.5-0.5,0.7l-14.2,8.1c-0.2,0.1-0.3,0.1-0.5,0.1c-0.1,0-0.2,0-0.3-0.1c-0.3-0.1-0.5-0.3-0.6-0.6
	c-1.1-2.6-1.6-5.5-1.6-8.5c0-3,0.5-5.7,1.5-8.3c0.1-0.3,0.3-0.5,0.6-0.6c0.3-0.1,0.6-0.1,0.8,0.1l14.2,8c0.2,0.1,0.3,0.2,0.4,0.4
	c0-0.3,0-0.6,0-0.9c0.2-1.2,0.7-2.2,1.5-3l-14.1-7.7c-0.2-0.1-0.4-0.4-0.5-0.7c-0.1-0.3,0-0.6,0.2-0.8c3.6-4.9,8.5-8.1,15-9v0
	c0,0,0.1,0,0.1,0c0,0,0.1,0,0.1,0c0,0,0,0,0,0c0,0,0,0,0,0c0,0,0,0,0,0l0,0c0.1,0,0.2,0.1,0.3,0.1c0,0,0,0,0,0c0,0,0,0,0,0
	c0,0,0,0,0,0c0,0,0,0,0,0c0,0,0,0,0,0c0,0,0,0,0,0c0,0,0,0,0,0c0,0,0,0,0,0c0,0,0,0,0,0c0,0,0,0,0,0c0,0,0,0,0,0c0,0,0,0,0,0
	c0,0,0,0,0,0c0,0,0,0,0,0c0,0,0,0,0,0c0,0,0,0,0,0l0,0c0,0,0,0,0,0l0,0c0,0,0,0,0,0c0.1,0.1,0.2,0.3,0.3,0.5c0,0,0,0,0,0l0,0
	c0,0,0,0.1,0,0.1c0,0.1,0,0.1,0,0.2l0,15.8c1.2-0.7,2.5-1,3.9-1.1l0-14.5c0,0,0,0,0,0v0c0,0,0,0,0,0c0,0,0,0,0,0c0,0,0,0,0,0
	c0,0,0,0,0,0c0,0,0,0,0,0c0,0,0,0,0,0c0,0,0,0,0,0c0,0,0,0,0,0c0.1-0.5,0.6-0.9,1.1-0.8c5.7,0.7,11.3,3.7,15,8.4
	c0.2,0.2,0.2,0.5,0.2,0.8c-0.1,0.3-0.2,0.5-0.5,0.7l-11.3,6.4c1,0.4,1.8,0.8,2.8,0.7c1.9-0.2,3.6-0.3,6.8-3.5c2.1-2,3.7-4,6.2-5.7
	c-4.8-7.2-12.9-12-22.2-12c-14.7,0-26.6,11.9-26.6,26.6c0,14.7,11.9,26.6,26.6,26.6c11.4,0,21.1-7.2,24.9-17.3
	C106,208.3,105.3,208.2,104.6,208z M79.7,220.7c0,0.3-0.1,0.6-0.3,0.8c-0.2,0.2-0.4,0.2-0.7,0.2c0,0-0.1,0-0.1,0
	c-6.1-0.8-11.5-4.1-15.1-8.7c-0.2-0.2-0.2-0.5-0.2-0.8c0.1-0.3,0.2-0.5,0.5-0.7l14.5-8.2c0.3-0.2,0.7-0.2,1,0
	c0.3,0.2,0.5,0.5,0.5,0.9L79.7,220.7z"/>
</svg>
