<?xml version="1.0" encoding="utf-8"?>
<!-- Generator: Adobe Illustrator 24.1.2, SVG Export Plug-In . SVG Version: 6.00 Build 0)  -->
<svg version="1.1" id="Lager_1" xmlns="http://www.w3.org/2000/svg" xmlns:xlink="http://www.w3.org/1999/xlink" x="0px" y="0px"
	 viewBox="0 0 61 81" style="enable-background:new 0 0 61 81;" xml:space="preserve">
<style type="text/css">
	.st0{display:none;fill-rule:evenodd;clip-rule:evenodd;}
	.st1{filter:url(#Adobe_OpacityMaskFilter);}
	.st2{fill-rule:evenodd;clip-rule:evenodd;fill:#FFFFFF;}
	.st3{mask:url(#b_1_);fill-rule:evenodd;clip-rule:evenodd;fill:#FFFFFF;}
	.st4{filter:url(#Adobe_OpacityMaskFilter_1_);}
	.st5{mask:url(#b_3_);fill-rule:evenodd;clip-rule:evenodd;fill:#FFFFFF;}
</style>
<rect x="-2.6" y="-2.9" class="st0" width="67.7" height="90.4"/>
<g>
	<g>
		<defs>
			<filter id="Adobe_OpacityMaskFilter" filterUnits="userSpaceOnUse" x="0" y="0.1" width="60.9" height="55.1">
				<feColorMatrix  type="matrix" values="1 0 0 0 0  0 1 0 0 0  0 0 1 0 0  0 0 0 1 0"/>
			</filter>
		</defs>
		<mask maskUnits="userSpaceOnUse" x="0" y="0.1" width="60.9" height="55.1" id="b_1_">
			<g class="st1">
				<path id="a_1_" class="st2" d="M0,0.1h60.9V81H0V0.1z"/>
			</g>
		</mask>
		<path class="st3" d="M60.5,28.1c-0.6-1-2.3-0.6-5.4-0.5c-1.4,0.1-2.9,0.1-4.2,0.1c0.4-1.8,0.5-3.9,0-6.6
			c-1.1-6.4-5.3-7.9-3.1-10.5c0.4-0.5,0.6-0.4,1.8-1.1c1.3-0.8,1-1.4,2-2c0.9-0.6,2-0.6,2.1-0.8c0.1-0.2,0-0.9,0-0.9
			s0.6-0.4,0.5-1.5c0-0.6-0.6-1-2.6-1c-1.8,0-7.6-0.4-10.3,0.5c-1.8-1.3-4.6-2.7-8.2-2.2C26.6,2.4,25.2,2,24,0.9
			c-1.2-1.2-2-0.9-1.6,0.2c0.4,1,2.4,3.3,8.1,2.7c4.5-0.4,7,1.1,8.3,2.3c-0.1,0.1-0.1,0.2-0.2,0.4c-0.5-0.2-1.8-0.5-3.1,0
			c-1.7,0.6-3,1.3-3,1.3s1.9,1.3,3.7,1.4c0.7,0,1.4-0.1,2-0.2c-0.1,1.5,0.2,3,0.7,4.2c1.2,3,0.7,6.3-0.2,7.7c-1,1.4-4.2,3.6-9.6,3.2
			s-8.9,0.2-12.4,2.2c-0.9,0.5-1.7,1.3-2.3,2.3c-0.4,0.1-0.8,0.3-1.2,0.5c-1.3,0.7-2.4,1.7-2.3,2.4c0.1,0.7,0.8,0.6,1.7,0.2
			c0.2-0.1,0.4-0.2,0.6-0.2c-0.2,0.9-0.3,1.8-0.2,2.8c0.1,1.1,0,4.7-0.2,5.2c-0.4,0.9-1.4,1.6-2.4,1.8c-1,0.2-1.6,0-2.3,0.9
			c-0.7,0.9-2.5,6.7-3.2,7.4c-0.4,0.3-0.4,0.7-0.3,1C4.5,50.8,4.4,51,4.2,51c-0.6,0.3-1.1-0.3-1.1-0.3l-1.6,0.2c0,0-1.3,3.7-1.4,4
			c-0.1,0.3,0.2,0.3,0.5,0.2c2.8-0.7,6.4-2.6,7.4-4c0.5-0.7,0.9-4.6,1.8-5.4c0.4-0.4,1.3-0.9,2.2-1.4c0.8-0.3,1.8-0.5,2.5-0.7
			c1.8-0.5,3.8-1.1,4.9-1.7c0.5-0.3,1.1-0.7,1.6-1.7c0.6-1,0.9-1.9,1.4-2.9c0.8-1.4,1.7-2.2,2.8-2.5c2.1-0.7,2.8,0.1,5.8,0.9
			c6.7,1.7,11.9,0.5,15.4-1.8c0.7,0.1,1.5,0,2.2-0.2c4-1.3,6.8-2.3,6.8-2.3s-3,3.6-3.8,4.2c-0.6,0.5-0.5,0.9-0.9,1.2
			c-0.6,0.3-1.1-0.3-1.1-0.3l-1.6,0.2c0,0-1.3,3.7-1.5,4C46.3,41,46.7,41,47,40.9c1.6-0.4,4-1.3,5.8-2.6c0.9-0.6,2.2-1.8,2.5-2.1
			c0.8-0.9,4-4,4.8-5C61,30.3,61.1,29.1,60.5,28.1"/>
		<g>
			<path class="st2" d="M37,37.9L37,37.9c-2.1,0-4.2-0.3-6.4-0.9c-0.8-0.2-1.5-0.4-2.3-0.7c-0.8-0.3-1.2-0.4-1.7-0.4
				c-0.3,0-0.6,0.1-1,0.2c-0.8,0.3-1.5,0.9-2.1,2c-0.3,0.5-0.5,0.9-0.7,1.4c-0.2,0.5-0.4,0.9-0.7,1.4c-0.6,1-1.2,1.7-2.1,2.2
				c-0.5,0.3-1.2,0.7-2.1,1v21h26.9V36.3C42.5,37.4,39.8,37.9,37,37.9z M37.3,44c1.4,0,2.3,0.7,2.3,1.7c0,1.1-0.9,1.7-2.3,1.7
				c-1.4,0-2.3-0.7-2.3-1.7C35,44.7,35.9,44,37.3,44z M32.4,58.4C31.7,58.8,30.3,59,29,59h-5v-2.4h0.9V46.4H24V44h5.9
				c1.4,0,2.6,0.4,3.3,1.1c1.2,1.1,1.8,3.3,1.8,6.4C35,55.2,34.1,57.6,32.4,58.4z M40,59h-5v-2.3h0.6v-6H35v-2.3h4.4v8.3H40V59z"/>
			<path class="st2" d="M28.6,46.4v10.2H29c1.6,0,2-0.9,2-5.6c0-2.4-0.2-3.6-0.6-4.1C30.1,46.5,29.7,46.4,28.6,46.4z"/>
		</g>
	</g>
	<defs>
		<filter id="Adobe_OpacityMaskFilter_1_" filterUnits="userSpaceOnUse" x="5" y="69.8" width="26.2" height="11.2">
			<feColorMatrix  type="matrix" values="1 0 0 0 0  0 1 0 0 0  0 0 1 0 0  0 0 0 1 0"/>
		</filter>
	</defs>
	<mask maskUnits="userSpaceOnUse" x="5" y="69.8" width="26.2" height="11.2" id="b_3_">
		<g class="st4">
			<path id="a_3_" class="st2" d="M0,0.1h60.9V81H0V0.1z"/>
		</g>
	</mask>
	<path class="st5" d="M12.7,77.1v3.7h-0.3L12,80.1c-0.9,0.4-1.8,0.9-2.6,0.9C6.3,81,5,78.2,5,75.4c0-2.7,1.4-5.6,4.5-5.6
		c1.4,0,2.5,0.5,3,0.7V73h-0.3l-0.6-1.4c-0.6-0.9-1-1.2-2.2-1.4c-1.4,0-2.1,0.8-2.5,2.2c-0.2,0.7-0.4,1.8-0.4,2.9
		c0,1.5,0.2,2.4,0.4,2.9c0.4,1.4,1.1,2.2,2.5,2.2c0.7,0,1.6-0.5,1.8-1v-2.4L10,76.7v-0.3h3.7v0.3L12.7,77.1 M18.1,72l-1.5,4.8h3.2
		C19.7,76.8,18.1,72,18.1,72z M19.6,80.8v-0.3l1.2-0.4l-0.9-2.9h-3.5l-0.9,2.8l1.2,0.4v0.3h-2.8v-0.3l1.1-0.5l3.4-10.1h0.5l3.4,10.1
		l1.1,0.4v0.3L19.6,80.8L19.6,80.8z M27.5,81c-1.5,0-2.7-0.4-3.2-0.6v-2.7h0.4l0.6,1.6c0.6,0.9,1.3,1.2,2.3,1.3
		c1.4,0,2.5-0.8,2.5-2.2c0-1-0.5-1.5-1.3-1.9c-0.7-0.4-1.8-0.6-2.7-1.1c-0.8-0.4-1.6-1.3-1.6-2.5c0-1.8,1.5-3.1,3.4-3.1
		c1.1,0,2.3,0.4,2.8,0.6V73h-0.3l-0.6-1.4c-0.4-0.7-0.7-1.2-1.9-1.3c-1.1,0-2.2,0.6-2.2,1.9c0,1.1,0.4,1.6,1.3,2
		c0.6,0.3,1.6,0.6,2.4,1c1,0.5,1.8,1.2,1.8,2.6C31.2,79.5,29.7,81,27.5,81"/>
	<path class="st2" d="M32,80.7l1.2-0.4v-9.6L32,70.3V70h7.5l0.1,3h-0.3c-0.4-1-0.8-1.9-1.5-2.5h-3.2V75h1.6c0.6-0.4,1-1.1,1.2-2h0.3
		v4.5h-0.3c-0.1-0.9-0.6-1.7-1.2-2h-1.6v5h3.4c0.7-0.8,1.3-2.1,1.6-3H40L39.7,81H32V80.7 M48.8,81H41v-0.3l1.3-0.4v-9.6L41,70.3V70
		h4.1v0.3l-1.3,0.4v9.8H47c0.7-0.8,1.4-2.1,1.7-3H49L48.8,81 M57.8,81H50v-0.3l1.3-0.4v-9.6L50,70.3V70h4.1v0.3l-1.3,0.4v9.8H56
		c0.7-0.8,1.4-2.1,1.7-3H58L57.8,81"/>
</g>
</svg> 
