<?xml version="1.0" encoding="utf-8"?>
<svg version="1.1" xmlns="http://www.w3.org/2000/svg" xmlns:xlink="http://www.w3.org/1999/xlink" x="0px" y="0px"
	 viewBox="0 0 624.18 112.4" style="enable-background:new 0 0 624.18 112.4;" xml:space="preserve">
<g>
	<path style="fill:#00303C;" d="M36.96,27.57c-7.44,0-13.44,2.88-16.68,7.92l0.12-5.04c0-2.28-1.2-3.84-4.56-2.16L2.4,34.89
		C0.96,35.61,0,36.57,0,37.77v0.6c0,3.12,5.52,3.48,5.52,8.4v54c0,5.16-4.68,6.12-4.68,9.12v0.48c0,1.32,1.08,2.04,2.76,2.04h21.72
		c1.68,0,2.76-0.72,2.76-2.04v-0.48c0-3-5.04-3.96-5.04-9.12V82.88c3.6,3,8.16,4.68,14.04,4.68c15,0,27.96-12.36,27.96-30.96
		C65.04,37.65,50.88,27.57,36.96,27.57z M35.28,82.4c-6.36,0-12.24-7.56-12.24-17.04V42.45c0.72-5.76,4.68-9.72,9.72-9.72
		c9.48,0,14.64,15.96,14.64,31.08C47.4,75.8,42.96,82.4,35.28,82.4z M117.09,38.49c0,5.04-1.92,9.48-7.68,9.48
		c-9.36,0-5.16-10.32-11.64-10.32c-4.68,0-6.36,6.6-6.36,13.2v24c0,5.04,6,6,6,9v0.48c0,1.32-1.08,2.04-2.64,2.04h-22.2
		c-1.68,0-2.76-0.72-2.76-2.04v-0.48c0-3,4.68-3.96,4.68-9V46.77c0-5.28-5.52-5.64-5.52-8.64v-0.48c0-1.2,0.96-2.16,2.52-2.88
		l14.4-6.72c2.76-1.32,3.84,0.12,3.84,2.4v9c2.64-7.68,8.28-11.88,16.32-11.88C113.13,27.57,117.09,32.37,117.09,38.49z
		 M149.56,27.57c-16.8,0-31.08,12.24-31.08,29.64c0,16.68,13.56,30.36,32.88,30.36c17.52,0,30.48-12.72,30.48-29.76
		C181.84,40.77,168.04,27.57,149.56,27.57z M153.52,82.28c-10.92,0-17.4-19.68-17.4-31.92c0-11.4,3.84-17.52,11.04-17.52
		c10.2,0,16.68,18.96,16.68,32.04C163.84,75.93,160,82.28,153.52,82.28z M233.49,38.49c0,5.04-1.92,9.48-7.68,9.48
		c-9.36,0-5.16-10.32-11.64-10.32c-4.68,0-6.36,6.6-6.36,13.2v24c0,5.04,6,6,6,9v0.48c0,1.32-1.08,2.04-2.64,2.04h-22.2
		c-1.68,0-2.76-0.72-2.76-2.04v-0.48c0-3,4.68-3.96,4.68-9V46.77c0-5.28-5.52-5.64-5.52-8.64v-0.48c0-1.2,0.96-2.16,2.52-2.88
		l14.4-6.72c2.76-1.32,3.84,0.12,3.84,2.4v9c2.64-7.68,8.28-11.88,16.32-11.88C229.53,27.57,233.49,32.37,233.49,38.49z
		 M284.32,68.13c-2.28,3.72-7.32,6.96-13.68,6.96c-7.2,0-12.72-3.84-15.84-10.44l26.64-12.12c3.24-1.44,5.28-3.84,5.28-7.92
		c0-7.92-6.96-17.04-22.68-17.04S235,39.69,235,57.09c0,18.48,12.36,30.48,29.04,30.48c15.48,0,23.64-11.16,24.36-18.12
		C288.52,66.93,285.76,66.33,284.32,68.13z M251.68,48.81c0-9.12,3.84-15.96,10.2-15.96c6.48,0,9.6,8.52,9.6,12.84
		c0,2.52-0.96,4.56-3.12,5.64l-15.48,7.8C252.04,56.01,251.68,52.53,251.68,48.81z M354.8,74.72c0.36,5.28,4.32,6.24,4.32,9.24v0.48
		c0,1.2-1.08,2.04-2.76,2.04H335.6c-1.68,0-2.76-0.84-2.76-2.04v-0.48c0-3,4.56-3.96,4.32-9.24l-1.2-22.2
		c-0.6-12.84-4.08-18.12-10.44-18.12c-6.48,0-10.2,5.4-10.2,13.2v27.24c0,5.16,5.16,6.12,5.16,9.12v0.48c0,1.2-1.08,2.04-2.76,2.04
		H295.4c-1.68,0-2.76-0.84-2.76-2.04v-0.48c0-3,5.16-3.96,5.16-9.12V46.89c0-5.4-5.88-5.88-5.88-8.88v-0.48c0-1.2,0.96-1.8,2.4-2.52
		l14.28-6.96c2.76-1.44,4.08,0.24,4.08,2.52v6.72c3.24-6.12,9.6-9.72,17.76-9.72c10.92,0,21.48,6.48,22.92,25.56L354.8,74.72z
		 M416.77,74.36l-2.64-22.2c-1.68-15.12-12.24-24.6-27.84-24.6c-12.48,0-23.04,5.04-23.04,13.68c0,4.08,2.88,6.72,7.2,6.72
		c9,0,6.24-15.36,15.84-15.36c7.32,0,9.24,6.72,10.68,20.76l0.12,1.44c-3.12-2.16-7.56-3.6-13.08-3.6
		c-11.76,0-21.84,6.24-21.72,18.24c0,12,9.6,18.12,22.56,18.12c8.28,0,13.32-3,15.96-6.96c0.72,5.16,3.84,6.48,10.68,6.48
		c5.76,0,11.52-0.72,11.52-3.48C423.01,80.36,417.73,82.64,416.77,74.36z M390.13,82.28c-6.12,0-10.08-7.32-10.08-15.6
		c0-6.12,3.72-10.08,8.76-10.08c4.92,0,8.76,3.6,9.48,10.68l0.36,4.2C399.01,76.89,395.66,82.28,390.13,82.28z M464.58,70.05
		c0,8.64-6.48,17.52-18.48,17.52c-10.92,0-18.12-7.08-18.12-20.76V35.73h-5.64c-1.44,0-2.4-0.96-2.4-2.4v-2.04
		c0-1.56,0.84-2.52,2.4-2.52h3c6.72,0,11.4-4.8,12.72-11.88c0.36-1.8,1.44-2.88,2.76-2.88h2.4c1.68,0,2.64,1.08,2.64,2.88
		l0.12,11.88h13.8c1.32,0,2.4,1.08,2.4,2.52v2.04c0,1.44-1.08,2.4-2.4,2.4h-13.8v31.32c0,4.8,2.64,7.68,6.12,7.68
		c4.8,0,7.2-2.64,8.16-5.4C461.7,67.29,464.58,67.76,464.58,70.05z M522.58,74.36l-2.64-22.2c-1.68-15.12-12.24-24.6-27.84-24.6
		c-12.48,0-23.04,5.04-23.04,13.68c0,4.08,2.88,6.72,7.2,6.72c9,0,6.24-15.36,15.84-15.36c7.32,0,9.24,6.72,10.68,20.76l0.12,1.44
		c-3.12-2.16-7.56-3.6-13.08-3.6c-11.76,0-21.84,6.24-21.72,18.24c0,12,9.6,18.12,22.56,18.12c8.28,0,13.32-3,15.96-6.96
		c0.72,5.16,3.84,6.48,10.68,6.48c5.76,0,11.52-0.72,11.52-3.48C528.82,80.36,523.54,82.64,522.58,74.36z M495.94,82.28
		c-6.12,0-10.08-7.32-10.08-15.6c0-6.12,3.72-10.08,8.76-10.08c4.92,0,8.76,3.6,9.48,10.68l0.36,4.2
		C504.82,76.89,501.46,82.28,495.94,82.28z"/>
	<g>
		<path style="fill:#F6A805;" d="M553.2,0c0,0-14.87,0-19.82,0c-7.43,0-7.43,0-7.43,7.43c0,4.96,0,0,0,19.82c0,14.87,4.96,19.82,19.82,19.82
			c19.82,0,3.99-0.02,13.63-0.01c6.19,0.01,8.67,2.49,8.67,8.68c0,1.37,1.11,2.48,2.48,2.48s2.48-1.11,2.48-2.48
			c0-2.45,0-13.63,0-35.93C573.02,4.96,568.06,0,553.2,0z"/>
		<path style="fill:#81C7BC;" d="M616.74,0c-4.96,0-19.82,0-19.82,0c-14.87,0-19.82,4.96-19.82,19.82c0,22.3,0,33.48,0,35.93
			c0,1.37,1.11,2.48,2.48,2.48c1.37,0,2.48-1.11,2.48-2.48c0-6.19,2.48-8.67,8.67-8.68c9.64-0.01-6.19,0.01,13.63,0.01
			c14.87,0,19.82-4.96,19.82-19.82c0-19.82,0-14.87,0-19.82C624.18,0,624.18,0,616.74,0z"/>
	</g>
</g>
</svg>
